<svg width="19" height="19" fill="none" xmlns="http://www.w3.org/2000/svg"><path fill-rule="evenodd" clip-rule="evenodd" d="M9.452 18.23C4.11 18.23.82 14.47.82 9.694A9.343 9.343 0 0110.393.271c4.872 0 8.509 2.993 8.509 7.718 0 4.304-2.276 6.01-4.552 6.01a2.687 2.687 0 01-2.42-1.261 4.526 4.526 0 01-3.043 1.212c-2.721 0-4.103-1.93-4.103-4.258a5.252 5.252 0 015.367-5.42 3.664 3.664 0 012.227.669l.099-.42h2.35l-1.162 5.441c-.223 1.089.025 1.954 1.089 1.954 1.31 0 2.078-1.088 2.078-3.982 0-3.859-3.043-5.665-6.456-5.665a7.123 7.123 0 00-7.372 7.42c0 3.909 2.499 6.457 6.456 6.457a9.537 9.537 0 004.354-1.014l.816 2.003a13.555 13.555 0 01-5.178 1.094zm-.173-6.606a2.453 2.453 0 001.805-.693l.791-3.66a2.353 2.353 0 00-1.703-.694 2.796 2.796 0 00-2.82 2.92c-.002 1.287.617 2.127 1.927 2.127z" fill="#C1C7D0"/></svg>