<svg width="78" height="78" viewBox="0 0 78 78" fill="none" xmlns="http://www.w3.org/2000/svg">
<path d="M64 12.1L63.9 10L60.3 13.4C60.7 13.7 61.1 14.1 61.5 14.4L64 12.1Z" fill="#E00109"/>
<path d="M65.6 19.1L69.2 15.7L67.1 15.5L64.6 17.9C65 18.2 65.3 18.7 65.6 19.1Z" fill="#E00109"/>
<path d="M72 16.4001C71.9 16.6001 71.7 16.8001 71.5 17.0001L66.9 21.3C69.8 26.3 71.3 32.3 70.8 38.8C69.5 56.4 54.1 70.7001 36.4 70.7001C18.8 70.7001 5.60001 56.4 6.90001 38.8C8.20001 21.2 23.6 6.90005 41.3 6.90005C47.7 6.90005 53.5 8.80006 58.2 12.0001L62.7 7.70007C62.9 7.50007 63.1 7.40005 63.4 7.30005C57.5 2.90005 50.1 0.300049 41.8 0.300049C20.5 0.300049 2.00001 17.5 0.400007 38.8C-1.19999 60.1 14.7 77.3 36 77.3C57.3 77.3 75.8 60.1 77.4 38.8C78.1 30.4 76 22.7001 72 16.4001Z" fill="#005195"/>
<path opacity="0.52" d="M36 76.3001C26 76.3001 16.9 72.4001 10.3 65.4001C3.69997 58.3001 0.499974 48.9001 1.29997 38.8001C2.89997 18.0001 21.1 1.1001 41.9 1.1001C49.2 1.1001 56.1 3.2001 61.9 7.2001L58.1 10.7001C53.2 7.5001 47.4 5.90009 41.3 5.90009C23.2 5.90009 7.39996 20.6001 6.09996 38.6001C5.39996 47.4001 8.19999 55.7001 14 61.9001C19.7 68.1001 27.7 71.5001 36.5 71.5001C54.6 71.5001 70.4 56.8001 71.7 38.8001C72.2 32.6001 70.9 26.6001 68.1 21.4001L71.9 17.9001C75.5 24.1001 77.2 31.2001 76.6 38.7001C75 59.4001 56.8 76.3001 36 76.3001Z" fill="url(#paint0_linear_191_141)"/>
<path d="M53.7 28.1C55.7 31 56.8 34.7 56.4 38.7C55.7 48.4 47.2 56.2 37.6 56.2C28 56.2 20.7 48.4 21.4 38.7C22.1 29 30.6 21.2 40.2 21.2C44.2 21.2 47.7 22.5 50.5 24.7L55.6 19.9C51.7 16.5 46.5 14.5 40.7 14.5C27.3 14.5 15.7 25.3 14.7 38.7C13.7 52.1 23.7 62.9 37 62.9C50.3 62.9 62 52.1 63 38.7C63.4 32.9 61.8 27.5 58.7 23.3L53.7 28.1Z" fill="#005195"/>
<path opacity="0.52" d="M37.1 62.0001C30.9 62.0001 25.3 59.6001 21.2 55.2001C17.1 50.8001 15.2 45.0001 15.6 38.7001C16.6 25.8001 27.9 15.3 40.8 15.3C45.8 15.3 50.6 16.9001 54.3 19.9001L50.5 23.5001C47.6 21.4001 44.1 20.2001 40.3 20.2001C30.2 20.2001 21.3 28.4001 20.6 38.5001C20.2 43.4001 21.8 48.1001 25 51.6001C28.2 55.1001 32.7 57.0001 37.6 57.0001C47.7 57.0001 56.6 48.8001 57.3 38.7001C57.6 34.9001 56.7 31.3001 54.8 28.2001L58.6 24.6001C61.3 28.6001 62.6 33.5001 62.2 38.6001C61.3 51.5001 50 62.0001 37.1 62.0001Z" fill="url(#paint1_linear_191_141)"/>
<defs>
<linearGradient id="paint0_linear_191_141" x1="1.22747" y1="38.7173" x2="76.6691" y2="38.7173" gradientUnits="userSpaceOnUse">
<stop stop-color="white"/>
<stop offset="0.00509876" stop-color="#F9FBFC"/>
<stop offset="0.0455039" stop-color="#CBDAE7"/>
<stop offset="0.0908439" stop-color="#A0BCD4"/>
<stop offset="0.1398" stop-color="#7AA1C2"/>
<stop offset="0.1931" stop-color="#5A8AB4"/>
<stop offset="0.2519" stop-color="#3E77A7"/>
<stop offset="0.3184" stop-color="#28679D"/>
<stop offset="0.396" stop-color="#175B95"/>
<stop offset="0.4919" stop-color="#0C5390"/>
<stop offset="0.6265" stop-color="#054E8D"/>
<stop offset="1" stop-color="#034D8C"/>
</linearGradient>
<linearGradient id="paint1_linear_191_141" x1="15.5771" y1="38.7173" x2="62.3193" y2="38.7173" gradientUnits="userSpaceOnUse">
<stop stop-color="white"/>
<stop offset="0.00509876" stop-color="#F9FBFC"/>
<stop offset="0.0455039" stop-color="#CBDAE7"/>
<stop offset="0.0908439" stop-color="#A0BCD4"/>
<stop offset="0.1398" stop-color="#7AA1C2"/>
<stop offset="0.1931" stop-color="#5A8AB4"/>
<stop offset="0.2519" stop-color="#3E77A7"/>
<stop offset="0.3184" stop-color="#28679D"/>
<stop offset="0.396" stop-color="#175B95"/>
<stop offset="0.4919" stop-color="#0C5390"/>
<stop offset="0.6265" stop-color="#054E8D"/>
<stop offset="1" stop-color="#034D8C"/>
</linearGradient>
</defs>
</svg>
