<svg width="575" height="80" fill="none" xmlns="http://www.w3.org/2000/svg"><path d="M57.2 5.8c.8 0 1.2.4 1.1 1.3l-1.7 11.4c-.2.9-.7 1.3-1.6 1.3H24.8l-2.2 13.5h27.7c.9 0 1.3.4 1.2 1.3l-1.7 10.8c-.2.9-.7 1.3-1.6 1.3H20.5l-2 13.1h30.2c.8 0 1.2.4 1.1 1.3L48 72.5c-.1.9-.6 1.3-1.6 1.3H1.5c-.9 0-1.2-.4-1-1.4L10.8 7.3c.1-1 .6-1.4 1.5-1.4h44.9v-.1zM170.9 7c1.6 1.1 2.6 4 3.2 8.8l6.5 56.5c0 1-.4 1.4-1.4 1.4H166c-.6 0-.9-.4-1-1.4l-2-17.5h-21.8l-7.5 17.5c-.4 1-.9 1.4-1.4 1.4H119c-1 0-1.2-.4-.9-1.4l24.4-56.5c2.1-4.8 4.1-7.7 6-8.8 1.9-1.1 5.7-1.6 11.4-1.6 5.8-.1 9.4.5 11 1.6zm-14.7 13L147 41.7h14.7L159.2 20c-.2-1.1-.2-1.4-1.3-1.4-.9 0-1.4.5-1.7 1.4zm84.7-13.2c1.5.4 2.1 1.4 1.8 2.7l-1.3 8.4c-.2.9-.7 1.3-1.6 1.3h-18.5c-5.1 0-8.7 1.4-10.7 4.2-2 2.8-3.6 8.1-4.9 16.2-1.4 7.7-1.5 13.1-.3 16.1 1.2 2.9 4.3 4.4 9.4 4.4h18.5c.9 0 1.2.4 1.1 1.3l-1.3 8.4c-.3 1.5-1.2 2.3-2.7 2.7-4.4 1-10.3 1.6-17.8 1.6-11.5 0-17.9-2-21.7-7.3-3.7-5.3-3.3-14-1.5-27.2 2.2-13.4 5.5-22.5 10.1-27.2 4.7-4.8 12.7-7.1 23.8-7.1 7.4 0 13.2.5 17.6 1.5zm58.6-1c.8 0 1.2.4 1.1 1.3l-1.7 11.4c-.2.9-.7 1.3-1.6 1.3H280l-8.3 52.5c-.2 1-.7 1.4-1.6 1.4h-13.4c-.9 0-1.2-.4-1-1.4l8.2-52.5h-17.3c-1 0-1.3-.4-1.1-1.3l1.7-11.4c.1-.9.6-1.3 1.6-1.3h50.7zm52.1 0c.9 0 1.3.4 1.2 1.3L351 18.5c-.2.9-.7 1.3-1.6 1.3h-27.8l-2.2 13.6h25.4c1 0 1.3.4 1.2 1.3l-1.7 10.7c-.1.9-.6 1.3-1.6 1.3h-25.4l-4 25.7c-.2 1-.7 1.4-1.6 1.4h-13.4c-.9 0-1.2-.4-1-1.4l10.3-65.1c.1-1 .6-1.4 1.5-1.4h42.5v-.1zm23.9 0c.9 0 1.2.4 1.1 1.4l-8.3 52.5h26.9c1 0 1.3.4 1.2 1.3l-1.9 11.4c-.1.9-.6 1.3-1.5 1.3h-41.7c-.9 0-1.2-.4-1-1.4l10.3-65.1c.1-1 .6-1.4 1.5-1.4h13.4zm197.4 0c1 0 1.3.5 1 1.5l-19.2 56.4c-1.6 4.6-3.2 7.5-5 8.8-1.8 1.1-5.3 1.7-10.5 1.7-5.8 0-9.4-.5-10.8-1.6-1.5-1.1-2.3-4.1-2.7-8.8l-2.3-29.5-11.5 29.5c-1.9 4.8-3.7 7.7-5.5 8.8-1.8 1.1-5.6 1.6-11.4 1.6-5.2 0-8.5-.6-9.9-1.7-1.4-1.2-2.1-4.2-2.2-8.8l-1.4-56.4c-.1-1 .4-1.5 1.4-1.5h13.8c.7 0 1 .5 1.1 1.5l.7 48.5c.1 1 .4 1.6 1.1 1.6 1 0 1.1-.3 1.7-1.6l18.2-46.3c.4-1 1.1-1.5 2.1-1.5h11.9c1.1 0 1.6.5 1.7 1.5l3.6 46.3c.1 1 .5 1.6 1.3 1.6s1-.3 1.6-1.6l16.1-48.5c.3-1 .8-1.5 1.5-1.5h13.6zM81.6 7.2c-.3-.7-.9-1.1-1.7-1.1H64.6c-1.4 0-1.9 1-1.2 2.2L77 36.9c.4.8.3 1.8-.2 2.5L52.7 71.2c-1 1.2-.7 2.3.5 2.3h15.3c.9 0 1.4-.5 1.9-1.2L96.5 39c.4-.5.4-1.1.2-1.6L81.6 7.2z" fill="#fff"/><path d="M124.2 6.1h-15.3c-.8 0-1.4.4-2 1.1l-12 14.6c-.9 1.2-1 2.8-.3 4.2l5.7 11.5c.3.5.2 1.2-.2 1.7l-9.7 12.6c-.6.8-.7 1.8-.3 2.7l8.3 18c.2.7.8 1.2 1.5 1.2h15.4c1.3 0 1.7-1.1 1.2-2.3l-10.8-22.7-4.4-9.2c-.3-.7-.2-1.5.2-2.1l23.3-29.1c.9-1.2.8-2.2-.6-2.2zM438 43c-.6 0-1.2-.2-1.6-.7-.9-.9 1.6 1 2.6 0l3.5-8.9c-1.4-.9-3-1.3-4.8-1.3-5.3 0-9.8 4.3-10.2 9.5-.4 5.3 3.5 9.5 8.8 9.5 5.3 0 9.8-4.3 10.2-9.5.1-1.7-.2-3.4-.9-4.8l-5.8 5.5c-.5.4-1.2.7-1.8.7z" fill="#fff"/><path d="M461.6 40.6c-1 13.4-12.7 24.2-26 24.2-13.4 0-23.4-10.8-22.3-24.2 1-13.4 12.7-24.2 26-24.2 5.8 0 11 2 14.9 5.4l-5.1 4.8c-2.8-2.2-6.3-3.5-10.3-3.5-9.7 0-18.1 7.8-18.8 17.5-.7 9.7 6.5 17.5 16.2 17.5s18.1-7.8 18.8-17.5c.3-4-.7-7.6-2.7-10.6l5.1-4.8c3 4.2 4.6 9.5 4.2 15.4zm-4.2-19.4c0 .2 0 .5-.1.7h.6l4.5.5 1.5-1.4c-.3-.4-.6-.9-.9-1.3l2.5-2.4-1.3-.1c-1-.1-1.8-.9-1.8-1.9l-.1-1.3-2.5 2.3c-.4-.4-.8-.7-1.2-1l-1.5 1.5.3 4.4z" fill="#fff"/><path d="M462.4 13.9l-.1-2.1-3.6 3.4c.4.3.8.7 1.2 1l2.5-2.3zm1.6 7l3.6-3.4-2.1-.2-2.5 2.4c.4.4.7.8 1 1.2z" fill="#fff"/><path d="M470.4 18.2c-.1.2-.3.4-.5.6l-4.6 4.3c2.9 5 4.4 11 3.9 17.5-1.3 17.6-16.7 31.9-34.4 31.9-17.6 0-30.8-14.3-29.5-31.9C406.6 23 422 8.7 439.7 8.7c6.4 0 12.2 1.9 16.9 5.1l4.5-4.3c.2-.2.4-.3.7-.4-5.9-4.4-13.3-7-21.6-7-21.3 0-39.8 17.2-41.4 38.5-1.6 21.3 14.3 38.5 35.6 38.5s39.8-17.2 41.4-38.5c.7-8.4-1.3-16.1-5.4-22.4z" fill="#fff"/><path d="M452.1 30c2 2.9 3.1 6.6 2.7 10.6-.7 9.7-9.2 17.5-18.8 17.5-9.6 0-16.9-7.8-16.2-17.5.7-9.7 9.2-17.5 18.8-17.5 4 0 7.5 1.3 10.3 3.5l5.1-4.8c-3.9-3.4-9.1-5.4-14.9-5.4-13.4 0-25 10.8-26 24.2-1 13.4 9 24.2 22.3 24.2 13.4 0 25-10.8 26-24.2.4-5.8-1.2-11.2-4.3-15.4l-5 4.8zm4.6-10.1l-.1-1.9c0-.1.1-.3.2-.4l4.5-4.3c.3-.3.8-.1.8.3l.1 2.2c0 .1-.1.3-.2.4l-4.5 4c-.3.3-.8.1-.8-.3z" fill="#fff"/><path d="M437 40.1c-.6 0-1.2-.2-1.6-.7-.9-.9-.8-2.4.2-3.4l5.8-5.5c-1.4-.9-3-1.3-4.8-1.3-5.3 0-9.8 4.3-10.2 9.5-.4 5.3 3.5 9.5 8.8 9.5 5.3 0 9.8-4.3 10.2-9.5.1-1.7-.2-3.4-.9-4.8l-5.8 5.5c-.4.5-1.1.7-1.7.7z" fill="#fff"/><path opacity=".52" d="M435.2 47.3c-2.3 0-4.4-.9-5.9-2.5s-2.2-3.8-2-6.1c.4-4.8 4.6-8.7 9.4-8.7 1.1 0 2.2.2 3.2.7l-4.9 4.7c-1.4 1.3-1.5 3.4-.3 4.7.6.6 1.4 1 2.3 1 .9 0 1.7-.3 2.4-1l4.8-4.6c.3 1 .4 2.1.4 3.2-.4 4.7-4.6 8.6-9.4 8.6z" fill="#fff"/><path d="M461 12.1l-.1-2.1-3.6 3.4c.4.3.8.7 1.2 1l2.5-2.3zm1.6 7l3.6-3.4-2.1-.2-2.5 2.4c.4.3.7.8 1 1.2z" fill="#fff"/><path d="M469 16.4c-.1.2-.3.4-.5.6l-4.6 4.3c2.9 5 4.4 11 3.9 17.5-1.3 17.6-16.7 31.9-34.4 31.9-17.6 0-30.8-14.3-29.5-31.9 1.3-17.6 16.7-31.9 34.4-31.9 6.4 0 12.2 1.9 16.9 5.1l4.5-4.3c.2-.2.4-.3.7-.4-5.9-4.4-13.3-7-21.6-7-21.3 0-39.8 17.2-41.4 38.5-1.6 21.3 14.3 38.5 35.6 38.5s39.8-17.2 41.4-38.5c.7-8.4-1.4-16.1-5.4-22.4z" fill="#fff"/><path opacity=".52" d="M433 76.3c-10 0-19.1-3.9-25.7-10.9-6.6-7.1-9.8-16.5-9-26.6 1.6-20.8 19.8-37.7 40.6-37.7 7.3 0 14.2 2.1 20 6.1l-3.8 3.5c-4.9-3.2-10.7-4.8-16.8-4.8-18.1 0-33.9 14.7-35.2 32.7-.7 8.8 2.1 17.1 7.9 23.3 5.7 6.2 13.7 9.6 22.5 9.6 18.1 0 33.9-14.7 35.2-32.7.5-6.2-.8-12.2-3.6-17.4l3.8-3.5c3.6 6.2 5.3 13.3 4.7 20.8-1.6 20.7-19.8 37.6-40.6 37.6z" fill="#fff"/><path d="M450.7 28.1c2 2.9 3.1 6.6 2.7 10.6-.7 9.7-9.2 17.5-18.8 17.5-9.6 0-16.9-7.8-16.2-17.5.7-9.7 9.2-17.5 18.8-17.5 4 0 7.5 1.3 10.3 3.5l5.1-4.8c-3.9-3.4-9.1-5.4-14.9-5.4-13.4 0-25 10.8-26 24.2-1 13.4 9 24.2 22.3 24.2s25-10.8 26-24.2c.4-5.8-1.2-11.2-4.3-15.4l-5 4.8z" fill="#fff"/><path opacity=".52" d="M434.1 62c-6.2 0-11.8-2.4-15.9-6.8s-6-10.2-5.6-16.5c1-12.9 12.3-23.4 25.2-23.4 5 0 9.8 1.6 13.5 4.6l-3.8 3.6c-2.9-2.1-6.4-3.3-10.2-3.3-10.1 0-19 8.2-19.7 18.3-.4 4.9 1.2 9.6 4.4 13.1s7.7 5.4 12.6 5.4c10.1 0 19-8.2 19.7-18.3.3-3.8-.6-7.4-2.5-10.5l3.8-3.6c2.7 4 4 8.9 3.6 14C458.3 51.5 447 62 434.1 62z" fill="#fff"/><path d="M459.4 6.9l-8.3 8.3 9.3 9.7 3.9-.6 8.4-8.2-13.3-9.2z" fill="#fff"/><path d="M436.8 41.1c-.1 0-.1 0 0 0-.9 0-1.6-.4-2.1-.9-1.1-1.2-1-3.1.2-4.3l23.8-22.4-.2-4.2c0-.9.3-1.8 1-2.4l5.9-5.5c.9-.8 2.1-1.1 3.2-.6 1.1.4 1.8 1.4 1.8 2.6l.1 3.1 3.1.3c1.2.1 2.1.9 2.5 2 .4 1.1.1 2.4-.8 3.2l-5.9 5.5c-.7.6-1.5.9-2.4.8l-4.7-.5c.3 0-23.3 22.5-23.3 22.5-.7.5-1.5.8-2.2.8z" fill="#fff"/><path d="M461.6 15.9c.2-.2.5-.3.8-.3l4.7.5c.3 0 .6-.1.8-.3l5.9-5.5c.6-.5.3-1.5-.4-1.6l-4.1-.4c-.4 0-.7-.4-.8-.8l-.2-4.1c0-.8-.9-1.1-1.5-.5l-5.9 5.5c-.2.2-.3.5-.3.8l.2 4.7c0 .3-.1.6-.3.8l-24.2 22.8c-.4.4-.4.9-.1 1.3.3.4.9.4 1.3 0" fill="#fff"/><path d="M461.6 11.2l-.1-1.9c0-.1.1-.3.2-.4l4.5-4.3c.3-.3.8-.1.8.3l.1 2.2c0 .1-.1.3-.2.4l-4.5 4c-.3.2-.8 0-.8-.3z" fill="#fff"/></svg>