<svg width="19" height="19" viewBox="0 0 19 19" fill="none" xmlns="http://www.w3.org/2000/svg">
<path fill-rule="evenodd" clip-rule="evenodd" d="M9.45197 18.2291C4.11004 18.2291 0.819715 14.4696 0.819715 9.69517C0.796914 7.16282 1.80307 4.7297 3.60773 2.95306C5.41239 1.17643 7.86096 0.208479 10.3926 0.27091C15.2654 0.270909 18.9018 3.26394 18.9018 7.98884C18.9018 12.2926 16.6264 13.9997 14.3503 13.9997C13.3738 14.0508 12.4467 13.5675 11.9294 12.7377C11.1021 13.5075 10.0168 13.94 8.88681 13.9501C6.16552 13.9501 4.78359 12.0208 4.78359 9.69207C4.73728 8.25014 5.28616 6.85264 6.30137 5.82761C7.31658 4.80258 8.70874 4.24029 10.1511 4.27272C10.9461 4.24779 11.7277 4.48231 12.3777 4.94085L12.4767 4.52046H14.8264L13.6651 9.96226C13.4422 11.0508 13.6899 11.9163 14.7537 11.9163C16.0644 11.9163 16.8316 10.8278 16.8316 7.93388C16.8316 4.0753 13.789 2.2691 10.3756 2.2691C8.39101 2.19802 6.46687 2.95869 5.06737 4.36759C3.66787 5.7765 2.92011 7.70569 3.00449 9.68975C3.00449 13.5979 5.50281 16.1457 9.46049 16.1457C10.9714 16.1573 12.4635 15.8097 13.8138 15.1316L14.6298 17.1352C12.9925 17.8365 11.233 18.2082 9.45197 18.2291ZM9.27855 11.6244C9.94984 11.6504 10.6024 11.3999 11.084 10.9315L11.8752 7.27037C11.425 6.81793 10.8102 6.56783 10.172 6.57747C9.40461 6.57036 8.66805 6.87891 8.13487 7.43083C7.60169 7.98274 7.31876 8.72952 7.35236 9.49618C7.35004 10.7837 7.96862 11.6244 9.27933 11.6244H9.27855Z" fill="#C1C7D0"/>
</svg>
