<svg width="575" height="80" viewBox="0 0 575 80" fill="none" xmlns="http://www.w3.org/2000/svg">
<path d="M57.1999 5.80005C57.9999 5.80005 58.3999 6.20007 58.2999 7.10007L56.5999 18.5001C56.3999 19.4001 55.8999 19.8 54.9999 19.8H24.7999L22.5999 33.3H50.2999C51.1999 33.3 51.5999 33.7001 51.4999 34.6001L49.7999 45.4001C49.5999 46.3001 49.0999 46.7001 48.1999 46.7001H20.4999L18.4999 59.8H48.6999C49.4999 59.8 49.8999 60.2001 49.7999 61.1001L47.9999 72.5001C47.8999 73.4001 47.3999 73.8 46.3999 73.8H1.4999C0.599897 73.8 0.299897 73.4001 0.499897 72.4001L10.7999 7.30005C10.8999 6.30005 11.3999 5.90005 12.2999 5.90005H57.1999V5.80005Z" fill="white"/>
<path d="M170.9 7.00008C172.5 8.10008 173.5 11.0001 174.1 15.8001L180.6 72.3001C180.6 73.3001 180.2 73.7001 179.2 73.7001H166C165.4 73.7001 165.1 73.3001 165 72.3001L163 54.8001H141.2L133.7 72.3001C133.3 73.3001 132.8 73.7001 132.3 73.7001H119C118 73.7001 117.8 73.3001 118.1 72.3001L142.5 15.8001C144.6 11.0001 146.6 8.10008 148.5 7.00008C150.4 5.90008 154.2 5.40007 159.9 5.40007C165.7 5.30007 169.3 5.90008 170.9 7.00008ZM156.2 20.0001L147 41.7001H161.7L159.2 20.0001C159 18.9001 159 18.6001 157.9 18.6001C157 18.6001 156.5 19.1001 156.2 20.0001Z" fill="white"/>
<path d="M240.9 6.80005C242.4 7.20005 243 8.20006 242.7 9.50006L241.4 17.9001C241.2 18.8001 240.7 19.2001 239.8 19.2001H221.3C216.2 19.2001 212.6 20.6001 210.6 23.4001C208.6 26.2001 207 31.5001 205.7 39.6001C204.3 47.3001 204.2 52.7001 205.4 55.7001C206.6 58.6001 209.7 60.1001 214.8 60.1001H233.3C234.2 60.1001 234.5 60.5001 234.4 61.4001L233.1 69.8C232.8 71.3 231.9 72.1001 230.4 72.5001C226 73.5001 220.1 74.1001 212.6 74.1001C201.1 74.1001 194.7 72.1 190.9 66.8C187.2 61.5 187.6 52.8001 189.4 39.6001C191.6 26.2001 194.9 17.1001 199.5 12.4001C204.2 7.60005 212.2 5.30005 223.3 5.30005C230.7 5.30005 236.5 5.80005 240.9 6.80005Z" fill="white"/>
<path d="M299.5 5.80005C300.3 5.80005 300.7 6.20007 300.6 7.10007L298.9 18.5001C298.7 19.4001 298.2 19.8 297.3 19.8H280L271.7 72.3C271.5 73.3 271 73.7001 270.1 73.7001H256.7C255.8 73.7001 255.5 73.3 255.7 72.3L263.9 19.8H246.6C245.6 19.8 245.3 19.4001 245.5 18.5001L247.2 7.10007C247.3 6.20007 247.8 5.80005 248.8 5.80005H299.5Z" fill="white"/>
<path d="M351.6 5.80005C352.5 5.80005 352.9 6.20007 352.8 7.10007L351 18.5001C350.8 19.4001 350.3 19.8 349.4 19.8H321.6L319.4 33.4001H344.8C345.8 33.4001 346.1 33.8001 346 34.7001L344.3 45.4001C344.2 46.3001 343.7 46.7001 342.7 46.7001H317.3L313.3 72.4001C313.1 73.4001 312.6 73.8 311.7 73.8H298.3C297.4 73.8 297.1 73.4001 297.3 72.4001L307.6 7.30005C307.7 6.30005 308.2 5.90005 309.1 5.90005H351.6V5.80005Z" fill="white"/>
<path d="M375.5 5.80005C376.4 5.80005 376.7 6.20007 376.6 7.20007L368.3 59.7001H395.2C396.2 59.7001 396.5 60.1001 396.4 61.0001L394.5 72.4001C394.4 73.3001 393.9 73.7001 393 73.7001H351.3C350.4 73.7001 350.1 73.3 350.3 72.3L360.6 7.20007C360.7 6.20007 361.2 5.80005 362.1 5.80005H375.5V5.80005Z" fill="white"/>
<path d="M572.9 5.80005C573.9 5.80005 574.2 6.30005 573.9 7.30005L554.7 63.7001C553.1 68.3001 551.5 71.2001 549.7 72.5001C547.9 73.6001 544.4 74.2001 539.2 74.2001C533.4 74.2001 529.8 73.7001 528.4 72.6001C526.9 71.5001 526.1 68.5 525.7 63.8L523.4 34.3L511.9 63.8C510 68.6 508.2 71.5001 506.4 72.6001C504.6 73.7001 500.8 74.2001 495 74.2001C489.8 74.2001 486.5 73.6001 485.1 72.5001C483.7 71.3001 483 68.3001 482.9 63.7001L481.5 7.30005C481.4 6.30005 481.9 5.80005 482.9 5.80005H496.7C497.4 5.80005 497.7 6.30005 497.8 7.30005L498.5 55.8C498.6 56.8 498.9 57.4001 499.6 57.4001C500.6 57.4001 500.7 57.1 501.3 55.8L519.5 9.50006C519.9 8.50006 520.6 8.00006 521.6 8.00006H533.5C534.6 8.00006 535.1 8.50006 535.2 9.50006L538.8 55.8C538.9 56.8 539.3 57.4001 540.1 57.4001C540.9 57.4001 541.1 57.1 541.7 55.8L557.8 7.30005C558.1 6.30005 558.6 5.80005 559.3 5.80005H572.9Z" fill="white"/>
<path d="M81.5999 7.2001C81.2999 6.5001 80.6999 6.1001 79.8999 6.1001H64.5999C63.1999 6.1001 62.6999 7.10008 63.3999 8.30008L76.9999 36.9001C77.3999 37.7001 77.2999 38.7001 76.7999 39.4001L52.6999 71.2001C51.6999 72.4001 51.9999 73.5001 53.1999 73.5001H68.4999C69.3999 73.5001 69.8999 73.0001 70.3999 72.3001L96.4999 39.0001C96.8999 38.5001 96.8999 37.9001 96.6999 37.4001L81.5999 7.2001Z" fill="white"/>
<path d="M124.2 6.1001H108.9C108.1 6.1001 107.5 6.5001 106.9 7.2001L94.8999 21.8001C93.9999 23.0001 93.8999 24.6001 94.5999 26.0001L100.3 37.5001C100.6 38.0001 100.5 38.7001 100.1 39.2001L90.3999 51.8001C89.7999 52.6001 89.6999 53.6001 90.0999 54.5001L98.3999 72.5001C98.5999 73.2001 99.1999 73.7001 99.8999 73.7001H115.3C116.6 73.7001 117 72.6001 116.5 71.4001L105.7 48.7001L101.3 39.5001C101 38.8001 101.1 38.0001 101.5 37.4001L124.8 8.30008C125.7 7.10008 125.6 6.1001 124.2 6.1001Z" fill="white"/>
<path d="M438 43.0001C437.4 43.0001 436.8 42.8001 436.4 42.3001C435.5 41.4001 438 43.3001 439 42.3001L442.5 33.4001C441.1 32.5001 439.5 32.1001 437.7 32.1001C432.4 32.1001 427.9 36.4001 427.5 41.6001C427.1 46.9001 431 51.1001 436.3 51.1001C441.6 51.1001 446.1 46.8001 446.5 41.6001C446.6 39.9001 446.3 38.2001 445.6 36.8001L439.8 42.3001C439.3 42.7001 438.6 43.0001 438 43.0001Z" fill="white"/>
<path d="M461.6 40.6002C460.6 54.0002 448.9 64.8001 435.6 64.8001C422.2 64.8001 412.2 54.0002 413.3 40.6002C414.3 27.2002 426 16.4001 439.3 16.4001C445.1 16.4001 450.3 18.4001 454.2 21.8001L449.1 26.6002C446.3 24.4002 442.8 23.1002 438.8 23.1002C429.1 23.1002 420.7 30.9002 420 40.6002C419.3 50.3002 426.5 58.1002 436.2 58.1002C445.9 58.1002 454.3 50.3002 455 40.6002C455.3 36.6002 454.3 33.0002 452.3 30.0002L457.4 25.2002C460.4 29.4002 462 34.7002 461.6 40.6002Z" fill="white"/>
<path d="M457.4 21.2001C457.4 21.4001 457.4 21.7001 457.3 21.9001C457.4 21.9001 457.6 21.9001 457.7 21.9001C457.8 21.9001 457.9 21.9001 457.9 21.9001L462.4 22.4001L463.9 21.0001C463.6 20.6001 463.3 20.1001 463 19.7001L465.5 17.3001L464.2 17.2001C463.2 17.1001 462.4 16.3001 462.4 15.3001L462.3 14.0001L459.8 16.3001C459.4 15.9001 459 15.6001 458.6 15.3001L457.1 16.8001L457.4 21.2001Z" fill="white"/>
<path d="M462.4 13.9001L462.3 11.8L458.7 15.2001C459.1 15.5001 459.5 15.9001 459.9 16.2001L462.4 13.9001Z" fill="white"/>
<path d="M464 20.9001L467.6 17.5001L465.5 17.3L463 19.7001C463.4 20.1001 463.7 20.5001 464 20.9001Z" fill="white"/>
<path d="M470.4 18.2001C470.3 18.4001 470.1 18.6001 469.9 18.8001L465.3 23.1001C468.2 28.1001 469.7 34.1001 469.2 40.6001C467.9 58.2001 452.5 72.5001 434.8 72.5001C417.2 72.5001 404 58.2001 405.3 40.6001C406.6 23.0001 422 8.7001 439.7 8.7001C446.1 8.7001 451.9 10.6001 456.6 13.8001L461.1 9.50009C461.3 9.30009 461.5 9.2001 461.8 9.1001C455.9 4.7001 448.5 2.1001 440.2 2.1001C418.9 2.1001 400.4 19.3001 398.8 40.6001C397.2 61.9001 413.1 79.1001 434.4 79.1001C455.7 79.1001 474.2 61.9001 475.8 40.6001C476.5 32.2001 474.5 24.5001 470.4 18.2001Z" fill="white"/>
<path d="M452.1 30.0002C454.1 32.9002 455.2 36.6002 454.8 40.6002C454.1 50.3002 445.6 58.1002 436 58.1002C426.4 58.1002 419.1 50.3002 419.8 40.6002C420.5 30.9002 429 23.1002 438.6 23.1002C442.6 23.1002 446.1 24.4002 448.9 26.6002L454 21.8001C450.1 18.4001 444.9 16.4001 439.1 16.4001C425.7 16.4001 414.1 27.2002 413.1 40.6002C412.1 54.0002 422.1 64.8001 435.4 64.8001C448.8 64.8001 460.4 54.0002 461.4 40.6002C461.8 34.8002 460.2 29.4002 457.1 25.2002L452.1 30.0002Z" fill="white"/>
<path d="M456.7 19.9001L456.6 18.0001C456.6 17.9001 456.7 17.7001 456.8 17.6001L461.3 13.3001C461.6 13.0001 462.1 13.2001 462.1 13.6001L462.2 15.8001C462.2 15.9001 462.1 16.1001 462 16.2001L457.5 20.2001C457.2 20.5001 456.7 20.3001 456.7 19.9001Z" fill="white"/>
<path d="M437 40.1001C436.4 40.1001 435.8 39.9001 435.4 39.4001C434.5 38.5001 434.6 37.0001 435.6 36.0001L441.4 30.5001C440 29.6001 438.4 29.2001 436.6 29.2001C431.3 29.2001 426.8 33.5001 426.4 38.7001C426 44.0001 429.9 48.2001 435.2 48.2001C440.5 48.2001 445 43.9001 445.4 38.7001C445.5 37.0001 445.2 35.3001 444.5 33.9001L438.7 39.4001C438.3 39.9001 437.6 40.1001 437 40.1001Z" fill="white"/>
<path opacity="0.52" d="M435.2 47.3C432.9 47.3 430.8 46.4 429.3 44.8C427.8 43.2 427.1 41 427.3 38.7C427.7 33.9 431.9 30 436.7 30C437.8 30 438.9 30.2 439.9 30.7L435 35.4C433.6 36.7 433.5 38.8 434.7 40.1C435.3 40.7 436.1 41.1 437 41.1C437.9 41.1 438.7 40.8 439.4 40.1L444.2 35.5C444.5 36.5 444.6 37.6 444.6 38.7C444.2 43.4 440 47.3 435.2 47.3Z" fill="white"/>
<path d="M461 12.1L460.9 10L457.3 13.4C457.7 13.7 458.1 14.1 458.5 14.4L461 12.1Z" fill="white"/>
<path d="M462.6 19.1L466.2 15.7L464.1 15.5L461.6 17.9C462 18.2 462.3 18.7 462.6 19.1Z" fill="white"/>
<path d="M469 16.4001C468.9 16.6001 468.7 16.8001 468.5 17.0001L463.9 21.3C466.8 26.3 468.3 32.3 467.8 38.8C466.5 56.4 451.1 70.7001 433.4 70.7001C415.8 70.7001 402.6 56.4 403.9 38.8C405.2 21.2 420.6 6.90005 438.3 6.90005C444.7 6.90005 450.5 8.80006 455.2 12.0001L459.7 7.70007C459.9 7.50007 460.1 7.40005 460.4 7.30005C454.5 2.90005 447.1 0.300049 438.8 0.300049C417.5 0.300049 399 17.5 397.4 38.8C395.8 60.1 411.7 77.3 433 77.3C454.3 77.3 472.8 60.1 474.4 38.8C475.1 30.4 473 22.7001 469 16.4001Z" fill="white"/>
<path opacity="0.52" d="M433 76.3001C423 76.3001 413.9 72.4001 407.3 65.4001C400.7 58.3001 397.5 48.9001 398.3 38.8001C399.9 18.0001 418.1 1.1001 438.9 1.1001C446.2 1.1001 453.1 3.2001 458.9 7.2001L455.1 10.7001C450.2 7.5001 444.4 5.90009 438.3 5.90009C420.2 5.90009 404.4 20.6001 403.1 38.6001C402.4 47.4001 405.2 55.7001 411 61.9001C416.7 68.1001 424.7 71.5001 433.5 71.5001C451.6 71.5001 467.4 56.8001 468.7 38.8001C469.2 32.6001 467.9 26.6001 465.1 21.4001L468.9 17.9001C472.5 24.1001 474.2 31.2001 473.6 38.7001C472 59.4001 453.8 76.3001 433 76.3001Z" fill="white"/>
<path d="M450.7 28.1C452.7 31 453.8 34.7 453.4 38.7C452.7 48.4 444.2 56.2 434.6 56.2C425 56.2 417.7 48.4 418.4 38.7C419.1 29 427.6 21.2 437.2 21.2C441.2 21.2 444.7 22.5 447.5 24.7L452.6 19.9C448.7 16.5 443.5 14.5 437.7 14.5C424.3 14.5 412.7 25.3 411.7 38.7C410.7 52.1 420.7 62.9 434 62.9C447.3 62.9 459 52.1 460 38.7C460.4 32.9 458.8 27.5 455.7 23.3L450.7 28.1Z" fill="white"/>
<path opacity="0.52" d="M434.1 62.0001C427.9 62.0001 422.3 59.6001 418.2 55.2001C414.1 50.8001 412.2 45.0001 412.6 38.7001C413.6 25.8001 424.9 15.3 437.8 15.3C442.8 15.3 447.6 16.9001 451.3 19.9001L447.5 23.5001C444.6 21.4001 441.1 20.2001 437.3 20.2001C427.2 20.2001 418.3 28.4001 417.6 38.5001C417.2 43.4001 418.8 48.1001 422 51.6001C425.2 55.1001 429.7 57.0001 434.6 57.0001C444.7 57.0001 453.6 48.8001 454.3 38.7001C454.6 34.9001 453.7 31.3001 451.8 28.2001L455.6 24.6001C458.3 28.6001 459.6 33.5001 459.2 38.6001C458.3 51.5001 447 62.0001 434.1 62.0001Z" fill="white"/>
<path d="M459.4 6.90002L451.1 15.2L460.4 24.9L464.3 24.3L472.7 16.1L459.4 6.90002Z" fill="white"/>
<path d="M436.8 41.1001C436.7 41.1001 436.7 41.1001 436.8 41.1001C435.9 41.1001 435.2 40.7001 434.7 40.2001C433.6 39.0001 433.7 37.1001 434.9 35.9001L458.7 13.5001L458.5 9.30011C458.5 8.40011 458.8 7.50011 459.5 6.90011L465.4 1.40011C466.3 0.600113 467.5 0.300107 468.6 0.800107C469.7 1.20011 470.4 2.20011 470.4 3.40011L470.5 6.50012L473.6 6.80011C474.8 6.90011 475.7 7.70011 476.1 8.80011C476.5 9.90011 476.2 11.2001 475.3 12.0001L469.4 17.5001C468.7 18.1001 467.9 18.4001 467 18.3001L462.3 17.8001C462.6 17.8001 439 40.3001 439 40.3001C438.3 40.8001 437.5 41.1001 436.8 41.1001Z" fill="white"/>
<path d="M461.6 15.9C461.8 15.7 462.1 15.6 462.4 15.6L467.1 16.1C467.4 16.1 467.7 16 467.9 15.8L473.8 10.3C474.4 9.8 474.1 8.80003 473.4 8.70003L469.3 8.3C468.9 8.3 468.6 7.90002 468.5 7.50002L468.3 3.40001C468.3 2.60001 467.4 2.30001 466.8 2.90001L460.9 8.40001C460.7 8.60001 460.6 8.90003 460.6 9.20003L460.8 13.9C460.8 14.2 460.7 14.5 460.5 14.7L436.3 37.5C435.9 37.9 435.9 38.4 436.2 38.8C436.5 39.2 437.1 39.2 437.5 38.8" fill="white"/>
<path d="M461.6 11.2L461.5 9.3C461.5 9.2 461.6 9 461.7 8.9L466.2 4.60001C466.5 4.30001 467 4.5 467 4.9L467.1 7.10001C467.1 7.20001 467 7.40001 466.9 7.50001L462.4 11.5C462.1 11.7 461.6 11.5 461.6 11.2Z" fill="white"/>
</svg>
