<svg width="80" height="80" viewBox="0 0 80 80" fill="none" xmlns="http://www.w3.org/2000/svg">
<rect opacity="0.1" x="6.66699" y="6.66675" width="66.6667" height="66.6667" rx="33.3333" fill="#4E22D0"/>
<path opacity="0.3" fill-rule="evenodd" clip-rule="evenodd" d="M30.667 27.6667C30.667 27.1145 31.1147 26.6667 31.667 26.6667H48.3337C48.8859 26.6667 49.3337 27.1145 49.3337 27.6667V40.3334C49.3337 40.8857 48.8859 41.3334 48.3337 41.3334H31.667C31.1147 41.3334 30.667 40.8857 30.667 40.3334V27.6667ZM33.3337 31.3334C33.3337 30.9652 33.6321 30.6667 34.0003 30.6667H42.0003C42.3685 30.6667 42.667 30.9652 42.667 31.3334C42.667 31.7016 42.3685 32.0001 42.0003 32.0001H34.0003C33.6321 32.0001 33.3337 31.7016 33.3337 31.3334ZM34.0003 33.3334C33.6321 33.3334 33.3337 33.6319 33.3337 34.0001C33.3337 34.3683 33.6321 34.6667 34.0003 34.6667H38.0003C38.3685 34.6667 38.667 34.3683 38.667 34.0001C38.667 33.6319 38.3685 33.3334 38.0003 33.3334H34.0003Z" fill="#4E22D0"/>
<path fill-rule="evenodd" clip-rule="evenodd" d="M28 32.978C28 32.5701 28.4621 32.3338 28.7927 32.5726L40 40.6668L51.2073 32.5726C51.5379 32.3338 52 32.5701 52 32.978V47.3334C52 48.438 51.1046 49.3334 50 49.3334H30C28.8954 49.3334 28 48.438 28 47.3334V32.978Z" fill="#4E22D0"/>
</svg>
